<svg width="95" height="80" viewBox="0 0 95 80" fill="none" xmlns="http://www.w3.org/2000/svg">
<g filter="url(#filter0_d_3_94)">
<path d="M83.6905 22.9223C83.6905 22.9223 59.5304 6.60391 36.8727 17.1694C14.215 27.7348 11.1859 56.7318 11.1859 56.7318C11.1859 56.7318 35.346 73.0502 58.0036 62.4848C80.6613 51.9193 83.6905 22.9223 83.6905 22.9223ZM16.5014 54.2531C17.2807 50.204 18.4861 46.2093 20.0991 42.3291C23.4551 34.2994 29.1869 25.7687 38.7937 21.2889C48.4006 16.8092 58.6153 17.9039 66.9326 20.4903C70.9419 21.7488 74.7768 23.3932 78.3795 25.3989C78.2838 25.8798 78.1782 26.4106 78.0491 26.9974C77.4532 29.6826 76.4395 33.3652 74.7818 37.3229C71.4168 45.3568 65.685 53.8875 56.0827 58.3652C46.4758 62.8449 36.2611 61.7502 27.9438 59.1638C23.9345 57.9053 20.1041 56.2588 16.5014 54.2531Z" fill="#87A6B7"/>
<path d="M42.6357 29.5281C39.6311 30.9292 37.2555 33.3579 36.0316 36.2801C34.8077 39.2022 34.8356 42.3783 36.1093 45.1098C37.383 47.8412 39.7981 49.9043 42.8233 50.845C45.8485 51.7857 49.2361 51.5271 52.2406 50.126C55.2452 48.725 57.6208 46.2962 58.8447 43.3741C60.0687 40.4519 60.0407 37.2758 58.767 34.5443C57.4933 31.8129 55.0782 29.7499 52.053 28.8092C49.0278 27.8684 45.6403 28.127 42.6357 29.5281ZM31.5778 47.2229C29.7946 43.3989 29.7555 38.9522 31.469 34.8613C33.1825 30.7703 36.5083 27.37 40.7147 25.4085C44.9211 23.447 49.6636 23.085 53.8989 24.402C58.1342 25.719 61.5154 28.6072 63.2986 32.4312C65.0817 36.2553 65.1209 40.7019 63.4074 44.7929C61.6939 48.8839 58.3681 52.2841 54.1616 54.2456C49.9552 56.2071 45.2127 56.5692 40.9774 55.2521C36.7421 53.9351 33.361 51.0469 31.5778 47.2229Z" fill="#87A6B7"/>
</g>
<defs>
<filter id="filter0_d_3_94" x="7.18585" y="13.6095" width="80.5046" height="60.4351" filterUnits="userSpaceOnUse" color-interpolation-filters="sRGB">
<feFlood flood-opacity="0" result="BackgroundImageFix"/>
<feColorMatrix in="SourceAlpha" type="matrix" values="0 0 0 0 0 0 0 0 0 0 0 0 0 0 0 0 0 0 127 0" result="hardAlpha"/>
<feOffset dy="4"/>
<feGaussianBlur stdDeviation="2"/>
<feComposite in2="hardAlpha" operator="out"/>
<feColorMatrix type="matrix" values="0 0 0 0 0 0 0 0 0 0 0 0 0 0 0 0 0 0 0.25 0"/>
<feBlend mode="normal" in2="BackgroundImageFix" result="effect1_dropShadow_3_94"/>
<feBlend mode="normal" in="SourceGraphic" in2="effect1_dropShadow_3_94" result="shape"/>
</filter>
</defs>
</svg>
