<svg width="102" height="87" viewBox="0 0 102 87" fill="none" xmlns="http://www.w3.org/2000/svg">
<g filter="url(#filter0_d_1_9)">
<path d="M31.8213 63.8934C26.4024 61.5985 21.6634 57.9509 18.0581 53.2999C14.4528 48.6488 12.1019 43.1501 11.2304 37.3302C10.359 31.5103 10.9963 25.5642 13.0812 20.0611C15.1661 14.5581 18.6289 9.68243 23.138 5.90103C23.7729 5.36828 24.1701 4.60515 24.2424 3.7795C24.3146 2.95385 24.0559 2.13333 23.5231 1.49843C22.9904 0.863526 22.2273 0.466264 21.4016 0.394029C20.576 0.321794 19.7554 0.580507 19.1205 1.11325C10.8669 8.03891 5.70243 17.9597 4.76338 28.6931C3.82433 39.4265 7.18757 50.0934 14.1132 58.347C21.0389 66.6007 30.9597 71.7652 41.6931 72.7042C52.4265 73.6433 63.0933 70.28 71.347 63.3544C74.8985 60.3758 77.7429 56.6446 79.6741 52.4309C81.6053 48.2173 82.5751 43.6268 82.513 38.9921C82.4509 34.3573 81.3586 29.7945 79.3152 25.6341C77.2718 21.4736 74.3285 17.8199 70.6986 14.9375C76.1174 17.2324 80.8564 20.88 84.4617 25.5311C88.0671 30.1821 90.418 35.6808 91.2894 41.5007C92.1608 47.3206 91.5236 53.2668 89.4386 58.7698C87.3537 64.2729 83.8909 69.1485 79.3819 72.9299C78.747 73.4627 78.3497 74.2258 78.2775 75.0514C78.2052 75.8771 78.464 76.6976 78.9967 77.3325C79.5294 77.9674 80.2926 78.3647 81.1182 78.4369C81.9439 78.5091 82.7644 78.2504 83.3993 77.7177C91.653 70.792 96.8174 60.8713 97.7565 50.1378C98.6955 39.4044 95.3323 28.7376 88.4066 20.4839C81.4809 12.2302 71.5602 7.06578 60.8268 6.12673C50.0933 5.18767 39.4265 8.55092 31.1728 15.4766C27.6214 18.4551 24.777 22.1864 22.8457 26.4C20.9145 30.6137 19.9448 35.2042 20.0069 39.8389C20.0689 44.4736 21.1612 49.0365 23.2046 53.1969C25.248 57.3573 28.1913 61.011 31.8213 63.8934ZM43.2251 29.8399C45.7647 27.7089 49.0468 26.6741 52.3494 26.963C55.652 27.252 58.7045 28.841 60.8355 31.3806C62.9664 33.9202 64.0013 37.2023 63.7124 40.5049C63.4234 43.8075 61.8344 46.8601 59.2948 48.991C56.7552 51.122 53.4731 52.1568 50.1705 51.8679C46.8679 51.579 43.8153 49.9899 41.6844 47.4503C39.5534 44.9107 38.5185 41.6286 38.8075 38.326C39.0964 35.0234 40.6855 31.9709 43.2251 29.8399Z" fill="#43687C"/>
</g>
<defs>
<filter id="filter0_d_1_9" x="0.608673" y="0.382126" width="101.302" height="86.0667" filterUnits="userSpaceOnUse" color-interpolation-filters="sRGB">
<feFlood flood-opacity="0" result="BackgroundImageFix"/>
<feColorMatrix in="SourceAlpha" type="matrix" values="0 0 0 0 0 0 0 0 0 0 0 0 0 0 0 0 0 0 127 0" result="hardAlpha"/>
<feOffset dy="4"/>
<feGaussianBlur stdDeviation="2"/>
<feComposite in2="hardAlpha" operator="out"/>
<feColorMatrix type="matrix" values="0 0 0 0 0 0 0 0 0 0 0 0 0 0 0 0 0 0 0.25 0"/>
<feBlend mode="normal" in2="BackgroundImageFix" result="effect1_dropShadow_1_9"/>
<feBlend mode="normal" in="SourceGraphic" in2="effect1_dropShadow_1_9" result="shape"/>
</filter>
</defs>
</svg>
